<?xml version="1.0" standalone="no"?>
<!DOCTYPE svg PUBLIC "-//W3C//DTD SVG 20010904//EN"
 "http://www.w3.org/TR/2001/REC-SVG-20010904/DTD/svg10.dtd">
<svg version="1.0" xmlns="http://www.w3.org/2000/svg"
 width="196.000000pt" height="196.000000pt" viewBox="0 0 196.000000 196.000000"
 preserveAspectRatio="xMidYMid meet">
<metadata>
Created by potrace 1.14, written by Peter Selinger 2001-2017
</metadata>
<g transform="translate(0.000000,196.000000) scale(0.100000,-0.100000)"
fill="#000000" stroke="none">
<path d="M335 1495 c-55 -7 -101 -14 -103 -14 -2 -1 0 -5 3 -11 10 -16 -106
-160 -141 -175 -22 -9 -33 -22 -37 -41 -3 -16 -12 -68 -20 -116 -9 -48 -18
-92 -21 -97 -10 -15 24 -271 39 -308 8 -18 25 -44 39 -58 21 -21 34 -25 84
-25 67 0 101 19 121 68 l12 29 147 -44 c203 -61 311 -93 317 -93 3 0 5 39 5
88 0 98 19 145 66 162 37 14 55 12 93 -11 27 -16 31 -23 20 -30 -8 -5 -27 -9
-42 -9 -42 0 -65 -16 -87 -60 -47 -92 -31 -231 35 -297 31 -31 36 -33 108 -33
73 0 76 1 105 34 17 19 33 45 37 57 7 20 11 21 59 14 74 -12 179 -8 306 10 95
13 114 13 133 1 59 -37 165 -25 209 23 15 17 41 37 58 46 17 9 40 30 51 48 18
28 20 44 16 137 -3 63 -2 87 3 60 l7 -45 1 45 c0 25 -4 56 -8 70 l-8 25 -2
-25 c-2 -17 -4 -20 -7 -8 -4 16 -6 16 -28 2 -12 -8 -47 -17 -76 -19 -30 -3
-124 -11 -209 -19 l-155 -15 -22 27 c-13 15 -23 30 -23 34 0 4 28 9 63 11 l62
3 -67 2 c-37 1 -70 -2 -73 -8 -3 -5 2 -21 12 -36 16 -25 16 -27 -2 -40 -22
-16 -55 -17 -149 -4 -38 6 -71 8 -73 6 -2 -2 1 -31 8 -65 11 -59 13 -61 52
-72 22 -6 50 -15 64 -20 l24 -9 -22 -31 c-21 -30 -25 -31 -75 -26 -74 8 -77
11 -70 71 10 79 -9 145 -65 226 -49 71 -49 72 -22 65 193 -50 308 -56 549 -29
82 9 173 17 203 19 36 2 59 9 70 21 15 17 15 17 -1 5 -19 -15 -25 -2 -7 16 16
16 -139 96 -251 129 -112 33 -138 51 -132 94 4 25 0 31 -24 40 -18 7 -29 7
-33 1 -4 -6 -32 12 -64 39 -58 49 -135 106 -107 78 8 -8 56 -50 107 -93 51
-43 106 -95 122 -115 l30 -37 -72 -12 c-114 -18 -300 -31 -453 -31 l-141 0
-81 148 -81 147 250 12 c137 6 255 13 261 15 23 8 -27 27 -113 44 -114 22
-639 28 -784 9z m153 -70 c3 -2 -48 -187 -54 -193 -5 -7 -148 38 -161 51 -13
13 -7 39 32 145 4 10 25 12 92 6 49 -4 89 -8 91 -9z m168 -19 c8 -8 94 -189
94 -197 0 -7 -10 1 -22 16 -17 22 -27 26 -52 22 -52 -9 -86 -26 -86 -43 0 -10
-6 -14 -14 -11 -8 3 -31 9 -50 13 -20 3 -36 9 -36 13 0 14 21 127 31 164 l10
39 62 -7 c34 -4 63 -8 63 -9z m-506 -151 c-7 -8 -16 -38 -21 -67 l-8 -53 3 52
c3 46 18 83 33 83 3 0 0 -7 -7 -15z m40 -55 c0 -5 -4 -10 -9 -10 -6 0 -13 5
-16 10 -3 6 1 10 9 10 9 0 16 -4 16 -10z m20 -20 c0 -5 -12 -10 -27 -9 l-28 1
25 8 c14 4 26 8 28 9 1 1 2 -3 2 -9z m207 -182 c-2 -29 -3 -8 -3 47 0 55 1 79
3 53 2 -26 2 -71 0 -100z m53 102 c0 -5 -4 -10 -10 -10 -5 0 -10 5 -10 10 0 6
5 10 10 10 6 0 10 -4 10 -10z m10 -30 c0 -5 -7 -7 -15 -4 -8 4 -15 8 -15 10 0
2 7 4 15 4 8 0 15 -4 15 -10z m294 -52 c-4 -18 -10 -78 -15 -133 l-8 -100 4
110 c4 104 11 155 22 155 3 0 1 -15 -3 -32z m-609 -27 c3 -5 1 -12 -5 -16 -5
-3 -10 -27 -10 -53 l0 -47 22 34 c28 44 36 22 9 -24 l-20 -35 29 0 c17 0 30
-2 30 -4 0 -2 3 -11 6 -20 5 -13 1 -14 -28 -6 -18 6 -34 10 -36 10 -1 0 9 -22
22 -49 14 -27 22 -52 18 -55 -3 -4 -16 12 -29 36 l-22 43 -1 -53 c0 -51 1 -53
23 -47 17 5 19 4 7 -4 -8 -6 -23 -11 -32 -11 -15 0 -18 9 -18 58 l0 57 -22
-33 c-13 -22 -24 -30 -31 -23 -6 6 0 21 17 44 14 18 26 37 26 40 0 3 -14 7
-32 9 -17 2 -33 9 -36 17 -3 10 4 12 32 9 20 -2 36 -3 36 -1 0 1 -10 23 -22
47 -21 44 -21 46 -3 66 19 21 59 27 70 11z m287 -115 c180 -75 266 -115 274
-127 7 -13 9 -13 -117 32 -412 148 -387 138 -369 149 28 18 59 10 212 -54z
m1402 -95 c8 -12 -18 -21 -67 -22 -23 -1 -32 -4 -19 -6 17 -3 22 -11 22 -33 0
-22 -5 -30 -22 -33 -13 -2 1 -2 29 1 56 5 103 -15 103 -42 0 -15 0 -15 -289
-51 -252 -32 -242 -33 -206 5 28 29 65 46 115 52 20 2 26 10 31 41 l6 39 -43
-4 c-66 -5 -48 16 22 25 79 12 264 34 291 36 12 0 24 -3 27 -8z m86 -21 c0
-11 -7 -20 -15 -20 -13 0 -13 3 -3 20 7 11 14 20 15 20 2 0 3 -9 3 -20z m-964
-12 c19 -23 19 -23 -2 -5 -11 9 -24 17 -27 17 -4 0 -7 -26 -7 -57 l0 -58 27
38 c17 24 30 34 36 28 6 -6 0 -21 -17 -41 -31 -37 -33 -50 -7 -50 30 0 51 -11
51 -25 0 -10 -10 -12 -35 -8 -41 7 -42 2 -14 -44 16 -26 24 -31 30 -21 5 7 9
8 9 2 0 -6 -11 -23 -25 -38 -33 -35 -79 -35 -117 1 -34 33 -34 36 -3 77 14 18
25 36 25 39 0 4 -16 7 -35 7 -28 0 -35 4 -35 19 0 16 5 18 35 11 42 -9 43 -3
10 50 -13 21 -20 42 -15 45 8 5 22 -11 48 -60 10 -17 11 -11 12 34 0 48 -2 53
-20 48 -11 -3 -18 -1 -14 4 11 18 70 10 90 -13z m-865 -35 c13 -16 12 -17 -3
-4 -10 7 -18 15 -18 17 0 8 8 3 21 -13z"/>
<path d="M103 979 c-9 -9 -7 -21 8 -50 11 -22 22 -39 24 -39 3 0 5 23 5 50 0
51 -12 64 -37 39z"/>
<path d="M130 851 c0 -6 5 -13 10 -16 6 -3 10 1 10 9 0 9 -4 16 -10 16 -5 0
-10 -4 -10 -9z"/>
<path d="M1678 743 c12 -2 30 -2 40 0 9 3 -1 5 -23 4 -22 0 -30 -2 -17 -4z"/>
<path d="M1598 733 c12 -2 30 -2 40 0 9 3 -1 5 -23 4 -22 0 -30 -2 -17 -4z"/>
<path d="M1668 673 c12 -2 32 -2 45 0 12 2 2 4 -23 4 -25 0 -35 -2 -22 -4z"/>
<path d="M1593 663 c9 -2 25 -2 35 0 9 3 1 5 -18 5 -19 0 -27 -2 -17 -5z"/>
<path d="M920 615 c0 -8 5 -15 10 -15 6 0 10 7 10 15 0 8 -4 15 -10 15 -5 0
-10 -7 -10 -15z"/>
<path d="M891 544 l-24 -35 21 -21 c28 -29 34 -21 30 41 l-3 51 -24 -36z"/>
<path d="M940 523 c0 -53 9 -63 36 -45 9 5 5 20 -12 52 l-23 45 -1 -52z"/>
<path d="M1921 979 c0 -14 -10 -34 -20 -43 -19 -17 -20 -17 -24 11 -4 27 -4
27 -6 -4 -1 -39 8 -41 38 -9 15 16 21 32 18 48 -4 22 -4 22 -6 -3z"/>
<path d="M1100 973 c0 -4 17 -27 38 -51 34 -39 43 -44 102 -52 71 -11 170 -13
170 -5 0 3 -8 18 -17 33 -9 15 -17 28 -18 29 0 1 -58 11 -128 22 -70 11 -131
22 -137 26 -5 3 -10 3 -10 -2z m164 -39 c81 -13 105 -20 115 -36 7 -11 10 -22
7 -25 -3 -3 -48 -1 -102 5 -88 9 -99 12 -127 41 -38 37 -37 37 107 15z"/>
<path d="M1783 963 c9 -2 23 -2 30 0 6 3 -1 5 -18 5 -16 0 -22 -2 -12 -5z"/>
<path d="M1610 950 c-45 -6 -48 -7 -18 -8 28 -2 36 -6 32 -16 -8 -20 26 -36
54 -25 25 9 28 24 10 36 -8 5 1 10 27 14 l40 6 -45 0 c-25 0 -70 -3 -100 -7z"/>
<path d="M1852 930 c0 -14 2 -19 5 -12 2 6 2 18 0 25 -3 6 -5 1 -5 -13z"/>
<path d="M1190 681 c0 -30 18 -41 71 -41 23 0 69 34 58 44 -6 5 -96 26 -113
26 -11 0 -16 -9 -16 -29z m66 8 c40 -10 44 -14 31 -26 -21 -21 -87 -7 -87 18
0 22 -1 22 56 8z"/>
</g>
</svg>
